<svg width="472" height="101" viewBox="0 0 472 101" fill="none" xmlns="http://www.w3.org/2000/svg">
<g filter="url(#filter0_d_1_2)">
<rect x="17" y="7" width="438" height="82" rx="12" fill="white"/>
</g>
<rect x="303" y="14" width="146" height="68" rx="8" fill="#D04EFF"/>
<path d="M95.168 26.008C96.1493 26.008 97.088 26.392 97.984 27.16C98.88 27.8853 99.328 28.888 99.328 30.168C99.328 30.552 99.264 30.9787 99.136 31.448L86.528 68.568C86.272 69.336 85.8027 69.9333 85.12 70.36C84.48 70.744 83.7973 70.9573 83.072 71C82.3467 71 81.6213 70.7867 80.896 70.36C80.2133 69.9333 79.68 69.3147 79.296 68.504L69.824 47L70.4 47.384L61.056 68.504C60.672 69.3147 60.1173 69.9333 59.392 70.36C58.7093 70.7867 58.0053 71 57.28 71C56.5973 70.9573 55.9147 70.744 55.232 70.36C54.5493 69.9333 54.08 69.336 53.824 68.568L41.216 31.448C41.088 30.9787 41.024 30.552 41.024 30.168C41.024 28.888 41.472 27.8853 42.368 27.16C43.3067 26.392 44.2667 26.008 45.248 26.008C46.0587 26.008 46.8053 26.2213 47.488 26.648C48.2133 27.0747 48.704 27.6933 48.96 28.504L59.136 59.352L57.728 59.288L66.816 37.464C67.1573 36.696 67.648 36.0987 68.288 35.672C68.928 35.2027 69.6533 34.9893 70.464 35.032C71.2747 34.9893 72 35.2027 72.64 35.672C73.28 36.0987 73.7493 36.696 74.048 37.464L82.368 58.328L81.344 58.968L91.392 28.504C91.648 27.6933 92.1387 27.0747 92.864 26.648C93.5893 26.2213 94.3573 26.008 95.168 26.008ZM119.726 71.64C116.099 71.64 112.942 70.8933 110.254 69.4C107.608 67.864 105.56 65.7947 104.11 63.192C102.702 60.5893 101.998 57.6453 101.998 54.36C101.998 50.52 102.766 47.256 104.302 44.568C105.88 41.8373 107.928 39.7467 110.446 38.296C112.963 36.8453 115.63 36.12 118.446 36.12C120.622 36.12 122.67 36.568 124.59 37.464C126.552 38.36 128.28 39.5973 129.774 41.176C131.267 42.712 132.44 44.504 133.294 46.552C134.19 48.6 134.638 50.776 134.638 53.08C134.595 54.104 134.19 54.936 133.422 55.576C132.654 56.216 131.758 56.536 130.734 56.536H106.286L104.366 50.136H127.854L126.446 51.416V49.688C126.36 48.4507 125.912 47.3413 125.102 46.36C124.334 45.3787 123.352 44.6107 122.158 44.056C121.006 43.4587 119.768 43.16 118.446 43.16C117.166 43.16 115.971 43.3307 114.862 43.672C113.752 44.0133 112.792 44.5893 111.982 45.4C111.171 46.2107 110.531 47.2987 110.062 48.664C109.592 50.0293 109.358 51.7573 109.358 53.848C109.358 56.152 109.827 58.1147 110.766 59.736C111.747 61.3147 112.984 62.5307 114.478 63.384C116.014 64.1947 117.635 64.6 119.342 64.6C120.92 64.6 122.179 64.472 123.118 64.216C124.056 63.96 124.803 63.6613 125.358 63.32C125.955 62.936 126.488 62.616 126.958 62.36C127.726 61.976 128.451 61.784 129.134 61.784C130.072 61.784 130.84 62.104 131.438 62.744C132.078 63.384 132.398 64.1307 132.398 64.984C132.398 66.136 131.8 67.1813 130.606 68.12C129.496 69.0587 127.939 69.8907 125.934 70.616C123.928 71.2987 121.859 71.64 119.726 71.64ZM173.442 26.072C174.508 26.072 175.426 26.4347 176.194 27.16C177.004 27.8427 177.41 28.7173 177.41 29.784C177.41 30.3387 177.282 30.9147 177.026 31.512L161.218 68.504C160.834 69.3573 160.279 69.9973 159.554 70.424C158.871 70.808 158.167 71 157.442 71C156.759 70.9573 156.098 70.744 155.458 70.36C154.818 69.9333 154.327 69.336 153.986 68.568L138.178 31.448C138.05 31.192 137.964 30.936 137.922 30.68C137.879 30.3813 137.858 30.104 137.858 29.848C137.858 28.6107 138.306 27.672 139.202 27.032C140.098 26.3493 140.951 26.008 141.762 26.008C143.383 26.008 144.556 26.84 145.282 28.504L159.298 61.464L157.058 61.528L169.922 28.504C170.647 26.8827 171.82 26.072 173.442 26.072ZM215.189 53.912C215.189 57.4107 214.399 60.504 212.821 63.192C211.285 65.8373 209.194 67.9067 206.549 69.4C203.946 70.8933 201.023 71.64 197.781 71.64C194.538 71.64 191.594 70.8933 188.949 69.4C186.346 67.9067 184.255 65.8373 182.677 63.192C181.141 60.504 180.373 57.4107 180.373 53.912C180.373 50.4133 181.141 47.3413 182.677 44.696C184.255 42.008 186.346 39.9173 188.949 38.424C191.594 36.888 194.538 36.12 197.781 36.12C201.023 36.12 203.946 36.888 206.549 38.424C209.194 39.9173 211.285 42.008 212.821 44.696C214.399 47.3413 215.189 50.4133 215.189 53.912ZM207.509 53.912C207.509 51.736 207.061 49.8587 206.165 48.28C205.311 46.6587 204.138 45.4 202.645 44.504C201.194 43.608 199.573 43.16 197.781 43.16C195.989 43.16 194.346 43.608 192.853 44.504C191.402 45.4 190.229 46.6587 189.333 48.28C188.479 49.8587 188.053 51.736 188.053 53.912C188.053 56.0453 188.479 57.9227 189.333 59.544C190.229 61.1227 191.402 62.36 192.853 63.256C194.346 64.152 195.989 64.6 197.781 64.6C199.573 64.6 201.194 64.152 202.645 63.256C204.138 62.36 205.311 61.1227 206.165 59.544C207.061 57.9227 207.509 56.0453 207.509 53.912ZM222.294 37.4H237.462C238.486 37.4 239.339 37.7413 240.022 38.424C240.705 39.1067 241.046 39.96 241.046 40.984C241.046 41.9653 240.705 42.7973 240.022 43.48C239.339 44.12 238.486 44.44 237.462 44.44H222.294C221.27 44.44 220.417 44.0987 219.734 43.416C219.051 42.7333 218.71 41.88 218.71 40.856C218.71 39.8747 219.051 39.064 219.734 38.424C220.417 37.7413 221.27 37.4 222.294 37.4ZM229.142 29.4C230.251 29.4 231.147 29.784 231.83 30.552C232.555 31.2773 232.918 32.1947 232.918 33.304V61.784C232.918 62.3813 233.025 62.872 233.238 63.256C233.494 63.64 233.814 63.9173 234.198 64.088C234.625 64.2587 235.073 64.344 235.542 64.344C236.054 64.344 236.523 64.2587 236.95 64.088C237.377 63.8747 237.867 63.768 238.422 63.768C239.019 63.768 239.553 64.0453 240.022 64.6C240.534 65.1547 240.79 65.9227 240.79 66.904C240.79 68.0987 240.129 69.08 238.806 69.848C237.526 70.616 236.139 71 234.646 71C233.75 71 232.747 70.936 231.638 70.808C230.571 70.6373 229.547 70.2747 228.566 69.72C227.627 69.1227 226.838 68.2267 226.198 67.032C225.558 65.8373 225.238 64.1947 225.238 62.104V33.304C225.238 32.1947 225.601 31.2773 226.326 30.552C227.094 29.784 228.033 29.4 229.142 29.4ZM263.913 71.64C260.286 71.64 257.129 70.8933 254.441 69.4C251.796 67.864 249.748 65.7947 248.297 63.192C246.889 60.5893 246.185 57.6453 246.185 54.36C246.185 50.52 246.953 47.256 248.489 44.568C250.068 41.8373 252.116 39.7467 254.633 38.296C257.15 36.8453 259.817 36.12 262.633 36.12C264.809 36.12 266.857 36.568 268.777 37.464C270.74 38.36 272.468 39.5973 273.961 41.176C275.454 42.712 276.628 44.504 277.481 46.552C278.377 48.6 278.825 50.776 278.825 53.08C278.782 54.104 278.377 54.936 277.609 55.576C276.841 56.216 275.945 56.536 274.921 56.536H250.473L248.553 50.136H272.041L270.633 51.416V49.688C270.548 48.4507 270.1 47.3413 269.289 46.36C268.521 45.3787 267.54 44.6107 266.345 44.056C265.193 43.4587 263.956 43.16 262.633 43.16C261.353 43.16 260.158 43.3307 259.049 43.672C257.94 44.0133 256.98 44.5893 256.169 45.4C255.358 46.2107 254.718 47.2987 254.249 48.664C253.78 50.0293 253.545 51.7573 253.545 53.848C253.545 56.152 254.014 58.1147 254.953 59.736C255.934 61.3147 257.172 62.5307 258.665 63.384C260.201 64.1947 261.822 64.6 263.529 64.6C265.108 64.6 266.366 64.472 267.305 64.216C268.244 63.96 268.99 63.6613 269.545 63.32C270.142 62.936 270.676 62.616 271.145 62.36C271.913 61.976 272.638 61.784 273.321 61.784C274.26 61.784 275.028 62.104 275.625 62.744C276.265 63.384 276.585 64.1307 276.585 64.984C276.585 66.136 275.988 67.1813 274.793 68.12C273.684 69.0587 272.126 69.8907 270.121 70.616C268.116 71.2987 266.046 71.64 263.913 71.64Z" fill="#2C1849"/>
<path d="M344.48 60.4C344.693 60.4 344.88 60.48 345.04 60.64C345.2 60.8 345.28 60.9867 345.28 61.2C345.28 61.44 345.2 61.64 345.04 61.8C344.88 61.9333 344.693 62 344.48 62H329.8C329.56 62 329.36 61.92 329.2 61.76C329.067 61.6 329 61.4133 329 61.2V34.8C329 34.5867 329.08 34.4 329.24 34.24C329.4 34.08 329.6 34 329.84 34C330.08 34 330.28 34.08 330.44 34.24C330.6 34.4 330.68 34.5867 330.68 34.8V61.12L329.96 60.4H344.48ZM356.418 61.2C356.418 61.4133 356.338 61.6 356.178 61.76C356.018 61.92 355.832 62 355.618 62C355.378 62 355.178 61.92 355.018 61.76C354.885 61.6 354.818 61.4133 354.818 61.2V42.2C354.818 41.9867 354.898 41.8 355.058 41.64C355.218 41.48 355.405 41.4 355.618 41.4C355.858 41.4 356.045 41.48 356.178 41.64C356.338 41.8 356.418 41.9867 356.418 42.2V61.2ZM355.618 38.68C355.192 38.68 354.845 38.56 354.578 38.32C354.338 38.08 354.218 37.7733 354.218 37.4V37.08C354.218 36.7067 354.352 36.4 354.618 36.16C354.885 35.92 355.232 35.8 355.658 35.8C356.032 35.8 356.338 35.92 356.578 36.16C356.845 36.4 356.978 36.7067 356.978 37.08V37.4C356.978 37.7733 356.845 38.08 356.578 38.32C356.338 38.56 356.018 38.68 355.618 38.68ZM367.701 41.32C367.834 41.32 367.967 41.3733 368.101 41.48C368.261 41.56 368.367 41.68 368.421 41.84L375.821 59.56L375.421 59.84L382.941 41.84C383.074 41.4933 383.354 41.32 383.781 41.32C383.914 41.32 384.074 41.3733 384.261 41.48C384.447 41.5867 384.541 41.7467 384.541 41.96C384.541 42.0933 384.527 42.2 384.501 42.28C384.474 42.3333 384.447 42.3867 384.421 42.44L376.461 61.48C376.327 61.8267 376.074 62 375.701 62C375.541 62 375.381 61.96 375.221 61.88C375.087 61.7733 374.994 61.64 374.941 61.48L366.941 42.48C366.914 42.4267 366.887 42.3733 366.861 42.32C366.861 42.24 366.861 42.1733 366.861 42.12C366.861 41.9067 366.927 41.72 367.061 41.56C367.194 41.4 367.407 41.32 367.701 41.32ZM403.768 62.4C401.768 62.4 399.995 61.9733 398.448 61.12C396.928 60.2667 395.728 59.0667 394.848 57.52C393.968 55.9467 393.528 54.1067 393.528 52C393.528 49.76 393.955 47.8533 394.808 46.28C395.688 44.7067 396.808 43.5067 398.168 42.68C399.555 41.8267 401.022 41.4 402.568 41.4C403.688 41.4 404.782 41.5867 405.848 41.96C406.915 42.3067 407.862 42.8667 408.688 43.64C409.542 44.3867 410.222 45.3333 410.728 46.48C411.262 47.6 411.555 48.9467 411.608 50.52C411.608 50.7333 411.528 50.9333 411.368 51.12C411.208 51.28 411.022 51.36 410.808 51.36H394.488L394.248 49.84H410.368L409.968 50.2V49.48C409.835 48.0667 409.382 46.88 408.608 45.92C407.862 44.96 406.955 44.24 405.888 43.76C404.822 43.2533 403.715 43 402.568 43C401.768 43 400.928 43.1867 400.048 43.56C399.168 43.9067 398.355 44.4533 397.608 45.2C396.862 45.92 396.248 46.84 395.768 47.96C395.315 49.08 395.088 50.3867 395.088 51.88C395.088 53.5067 395.408 55 396.048 56.36C396.715 57.72 397.688 58.8133 398.968 59.64C400.275 60.4667 401.875 60.88 403.768 60.88C404.675 60.88 405.528 60.7333 406.328 60.44C407.128 60.12 407.848 59.7067 408.488 59.2C409.128 58.6933 409.648 58.1467 410.048 57.56C410.262 57.32 410.488 57.2 410.728 57.2C410.915 57.2 411.075 57.28 411.208 57.44C411.342 57.5733 411.408 57.7333 411.408 57.92C411.408 58.1067 411.355 58.2667 411.248 58.4C410.422 59.4667 409.355 60.4 408.048 61.2C406.768 62 405.342 62.4 403.768 62.4ZM422.435 54.52C422.062 54.52 421.862 54.3067 421.835 53.88L421.635 35.24C421.635 34.8667 421.675 34.5733 421.755 34.36C421.862 34.12 422.088 34 422.435 34C422.782 34 422.995 34.12 423.075 34.36C423.182 34.5733 423.235 34.8667 423.235 35.24L423.035 53.88C423.008 54.3067 422.808 54.52 422.435 54.52ZM422.355 62C422.008 62 421.742 61.88 421.555 61.64C421.368 61.4 421.275 61.1067 421.275 60.76V59.84C421.275 59.4667 421.368 59.1733 421.555 58.96C421.742 58.72 422.008 58.6 422.355 58.6H422.515C422.888 58.6 423.155 58.72 423.315 58.96C423.502 59.1733 423.595 59.4667 423.595 59.84V60.76C423.595 61.1067 423.502 61.4 423.315 61.64C423.155 61.88 422.888 62 422.515 62H422.355Z" fill="white"/>
<defs>
<filter id="filter0_d_1_2" x="11" y="3" width="450" height="94" filterUnits="userSpaceOnUse" color-interpolation-filters="sRGB">
<feFlood flood-opacity="0" result="BackgroundImageFix"/>
<feColorMatrix in="SourceAlpha" type="matrix" values="0 0 0 0 0 0 0 0 0 0 0 0 0 0 0 0 0 0 127 0" result="hardAlpha"/>
<feOffset dy="2"/>
<feGaussianBlur stdDeviation="3"/>
<feComposite in2="hardAlpha" operator="out"/>
<feColorMatrix type="matrix" values="0 0 0 0 0 0 0 0 0 0 0 0 0 0 0 0 0 0 0.25 0"/>
<feBlend mode="normal" in2="BackgroundImageFix" result="effect1_dropShadow_1_2"/>
<feBlend mode="normal" in="SourceGraphic" in2="effect1_dropShadow_1_2" result="shape"/>
</filter>
</defs>
</svg>
